solid OpenSCAD_Model
  facet normal 0.986361 0.164594 0
    outer loop
      vertex 5.8 0 2.4
      vertex 5.48574 1.88326 0
      vertex 5.48574 1.88326 2.4
    endloop
  endfacet
  facet normal 0.986361 0.164594 0
    outer loop
      vertex 5.48574 1.88326 0
      vertex 5.8 0 2.4
      vertex 5.8 0 0
    endloop
  endfacet
  facet normal -1 0 0
    outer loop
      vertex -5.72089 -0.954648 0
      vertex -5.72089 0.954648 2.4
      vertex -5.72089 0.954648 0
    endloop
  endfacet
  facet normal -1 -0 0
    outer loop
      vertex -5.72089 0.954648 2.4
      vertex -5.72089 -0.954648 0
      vertex -5.72089 -0.954648 2.4
    endloop
  endfacet
  facet normal -0.245485 0.9694 0
    outer loop
      vertex -0.47896 5.78019 0
      vertex -2.32983 5.31149 2.4
      vertex -0.47896 5.78019 2.4
    endloop
  endfacet
  facet normal -0.245485 0.9694 0
    outer loop
      vertex -2.32983 5.31149 2.4
      vertex -0.47896 5.78019 0
      vertex -2.32983 5.31149 0
    endloop
  endfacet
  facet normal 0 0 -1
    outer loop
      vertex 4.15 0 0
      vertex 5.8 0 0
      vertex 5.48574 -1.88326 0
    endloop
  endfacet
  facet normal 0 0 -1
    outer loop
      vertex 3.73902 -1.80062 0
      vertex 5.48574 -1.88326 0
      vertex 4.57701 -3.56243 0
    endloop
  endfacet
  facet normal 0 0 -1
    outer loop
      vertex 5.8 0 0
      vertex 4.15 0 0
      vertex 5.48574 1.88326 0
    endloop
  endfacet
  facet normal 0 0 -1
    outer loop
      vertex 3.73902 1.80062 0
      vertex 5.48574 1.88326 0
      vertex 4.15 0 0
    endloop
  endfacet
  facet normal 0 0 -1
    outer loop
      vertex 5.48574 -1.88326 0
      vertex 3.73902 -1.80062 0
      vertex 4.15 0 0
    endloop
  endfacet
  facet normal 0 0 -1
    outer loop
      vertex 2.58748 -3.2446 0
      vertex 4.57701 -3.56243 0
      vertex 3.1723 -4.85557 0
    endloop
  endfacet
  facet normal 0 0 -1
    outer loop
      vertex 4.57701 -3.56243 0
      vertex 2.58748 -3.2446 0
      vertex 3.73902 -1.80062 0
    endloop
  endfacet
  facet normal 0 0 -1
    outer loop
      vertex 0.923461 -4.04595 0
      vertex 3.1723 -4.85557 0
      vertex 1.42382 -5.62252 0
    endloop
  endfacet
  facet normal 0 0 -1
    outer loop
      vertex 3.1723 -4.85557 0
      vertex 0.923461 -4.04595 0
      vertex 2.58748 -3.2446 0
    endloop
  endfacet
  facet normal 0 0 -1
    outer loop
      vertex -0.47896 -5.78019 0
      vertex 0.923461 -4.04595 0
      vertex 1.42382 -5.62252 0
    endloop
  endfacet
  facet normal 0 0 -1
    outer loop
      vertex -0.47896 -5.78019 0
      vertex -0.923461 -4.04595 0
      vertex 0.923461 -4.04595 0
    endloop
  endfacet
  facet normal 0 0 -1
    outer loop
      vertex -2.32983 -5.31149 0
      vertex -0.923461 -4.04595 0
      vertex -0.47896 -5.78019 0
    endloop
  endfacet
  facet normal 0 0 -1
    outer loop
      vertex -2.32983 -5.31149 0
      vertex -2.58748 -3.2446 0
      vertex -0.923461 -4.04595 0
    endloop
  endfacet
  facet normal 0 0 -1
    outer loop
      vertex -3.92823 -4.2672 0
      vertex -2.58748 -3.2446 0
      vertex -2.32983 -5.31149 0
    endloop
  endfacet
  facet normal -0 0 -1
    outer loop
      vertex -2.58748 -3.2446 0
      vertex -3.92823 -4.2672 0
      vertex -3.73902 -1.80062 0
    endloop
  endfacet
  facet normal 0 0 -1
    outer loop
      vertex -5.10095 -2.76049 0
      vertex -3.73902 -1.80062 0
      vertex -3.92823 -4.2672 0
    endloop
  endfacet
  facet normal 0 0 -1
    outer loop
      vertex -5.72089 -0.954648 0
      vertex -3.73902 -1.80062 0
      vertex -5.10095 -2.76049 0
    endloop
  endfacet
  facet normal -0 0 -1
    outer loop
      vertex 5.48574 1.88326 0
      vertex 3.73902 1.80062 0
      vertex 4.57701 3.56243 0
    endloop
  endfacet
  facet normal 0 0 -1
    outer loop
      vertex 2.58748 3.2446 0
      vertex 4.57701 3.56243 0
      vertex 3.73902 1.80062 0
    endloop
  endfacet
  facet normal -0 0 -1
    outer loop
      vertex 4.57701 3.56243 0
      vertex 2.58748 3.2446 0
      vertex 3.1723 4.85557 0
    endloop
  endfacet
  facet normal 0 0 -1
    outer loop
      vertex 0.923461 4.04595 0
      vertex 3.1723 4.85557 0
      vertex 2.58748 3.2446 0
    endloop
  endfacet
  facet normal -0 0 -1
    outer loop
      vertex 3.1723 4.85557 0
      vertex 0.923461 4.04595 0
      vertex 1.42382 5.62252 0
    endloop
  endfacet
  facet normal 0 0 -1
    outer loop
      vertex 0.923461 4.04595 0
      vertex -0.47896 5.78019 0
      vertex 1.42382 5.62252 0
    endloop
  endfacet
  facet normal 0 0 -1
    outer loop
      vertex -0.923461 4.04595 0
      vertex -0.47896 5.78019 0
      vertex 0.923461 4.04595 0
    endloop
  endfacet
  facet normal 0 0 -1
    outer loop
      vertex -0.923461 4.04595 0
      vertex -2.32983 5.31149 0
      vertex -0.47896 5.78019 0
    endloop
  endfacet
  facet normal 0 0 -1
    outer loop
      vertex -2.58748 3.2446 0
      vertex -2.32983 5.31149 0
      vertex -0.923461 4.04595 0
    endloop
  endfacet
  facet normal 0 0 -1
    outer loop
      vertex -3.92823 4.2672 0
      vertex -2.58748 3.2446 0
      vertex -3.73902 1.80062 0
    endloop
  endfacet
  facet normal 0 0 -1
    outer loop
      vertex -2.58748 3.2446 0
      vertex -3.92823 4.2672 0
      vertex -2.32983 5.31149 0
    endloop
  endfacet
  facet normal 0 0 -1
    outer loop
      vertex -5.72089 0.954648 0
      vertex -3.73902 1.80062 0
      vertex -4.15 0 0
    endloop
  endfacet
  facet normal 0 0 -1
    outer loop
      vertex -3.73902 -1.80062 0
      vertex -5.72089 -0.954648 0
      vertex -4.15 0 0
    endloop
  endfacet
  facet normal 0 0 -1
    outer loop
      vertex -3.73902 1.80062 0
      vertex -5.10095 2.76049 0
      vertex -3.92823 4.2672 0
    endloop
  endfacet
  facet normal 0 0 -1
    outer loop
      vertex -5.72089 0.954648 0
      vertex -4.15 0 0
      vertex -5.72089 -0.954648 0
    endloop
  endfacet
  facet normal -0 0 -1
    outer loop
      vertex -3.73902 1.80062 0
      vertex -5.72089 0.954648 0
      vertex -5.10095 2.76049 0
    endloop
  endfacet
  facet normal 0.401696 0.915773 -0
    outer loop
      vertex 3.1723 4.85557 0
      vertex 1.42382 5.62252 2.4
      vertex 3.1723 4.85557 2.4
    endloop
  endfacet
  facet normal 0.401696 0.915773 0
    outer loop
      vertex 1.42382 5.62252 2.4
      vertex 3.1723 4.85557 0
      vertex 1.42382 5.62252 0
    endloop
  endfacet
  facet normal 0.879474 0.475947 0
    outer loop
      vertex 5.48574 1.88326 2.4
      vertex 4.57701 3.56243 0
      vertex 4.57701 3.56243 2.4
    endloop
  endfacet
  facet normal 0.879474 0.475947 0
    outer loop
      vertex 4.57701 3.56243 0
      vertex 5.48574 1.88326 2.4
      vertex 5.48574 1.88326 0
    endloop
  endfacet
  facet normal 0.0825791 0.996585 -0
    outer loop
      vertex 1.42382 5.62252 0
      vertex -0.47896 5.78019 2.4
      vertex 1.42382 5.62252 2.4
    endloop
  endfacet
  facet normal 0.0825791 0.996585 0
    outer loop
      vertex -0.47896 5.78019 2.4
      vertex 1.42382 5.62252 0
      vertex -0.47896 5.78019 0
    endloop
  endfacet
  facet normal -0.78914 0.614213 0
    outer loop
      vertex -5.10095 2.76049 0
      vertex -3.92823 4.2672 2.4
      vertex -3.92823 4.2672 0
    endloop
  endfacet
  facet normal -0.78914 0.614213 0
    outer loop
      vertex -3.92823 4.2672 2.4
      vertex -5.10095 2.76049 0
      vertex -5.10095 2.76049 2.4
    endloop
  endfacet
  facet normal -0.945817 0.324699 0
    outer loop
      vertex -5.72089 0.954648 0
      vertex -5.10095 2.76049 2.4
      vertex -5.10095 2.76049 0
    endloop
  endfacet
  facet normal -0.945817 0.324699 0
    outer loop
      vertex -5.10095 2.76049 2.4
      vertex -5.72089 0.954648 0
      vertex -5.72089 0.954648 2.4
    endloop
  endfacet
  facet normal 0 0 1
    outer loop
      vertex 4.15 0 2.4
      vertex 5.8 0 2.4
      vertex 5.48574 1.88326 2.4
    endloop
  endfacet
  facet normal 0 0 1
    outer loop
      vertex 3.73902 1.80062 2.4
      vertex 5.48574 1.88326 2.4
      vertex 4.57701 3.56243 2.4
    endloop
  endfacet
  facet normal 0 0 1
    outer loop
      vertex 5.8 0 2.4
      vertex 4.15 0 2.4
      vertex 5.48574 -1.88326 2.4
    endloop
  endfacet
  facet normal -0 0 1
    outer loop
      vertex 3.73902 -1.80062 2.4
      vertex 5.48574 -1.88326 2.4
      vertex 4.15 0 2.4
    endloop
  endfacet
  facet normal 0 0 1
    outer loop
      vertex 5.48574 1.88326 2.4
      vertex 3.73902 1.80062 2.4
      vertex 4.15 0 2.4
    endloop
  endfacet
  facet normal 0 0 1
    outer loop
      vertex 2.58748 3.2446 2.4
      vertex 4.57701 3.56243 2.4
      vertex 3.1723 4.85557 2.4
    endloop
  endfacet
  facet normal 0 0 1
    outer loop
      vertex 4.57701 3.56243 2.4
      vertex 2.58748 3.2446 2.4
      vertex 3.73902 1.80062 2.4
    endloop
  endfacet
  facet normal 0 0 1
    outer loop
      vertex 0.923461 4.04595 2.4
      vertex 3.1723 4.85557 2.4
      vertex 1.42382 5.62252 2.4
    endloop
  endfacet
  facet normal 0 0 1
    outer loop
      vertex 3.1723 4.85557 2.4
      vertex 0.923461 4.04595 2.4
      vertex 2.58748 3.2446 2.4
    endloop
  endfacet
  facet normal 0 0 1
    outer loop
      vertex -0.47896 5.78019 2.4
      vertex 0.923461 4.04595 2.4
      vertex 1.42382 5.62252 2.4
    endloop
  endfacet
  facet normal 0 0 1
    outer loop
      vertex -0.47896 5.78019 2.4
      vertex -0.923461 4.04595 2.4
      vertex 0.923461 4.04595 2.4
    endloop
  endfacet
  facet normal -0 0 1
    outer loop
      vertex -2.32983 5.31149 2.4
      vertex -0.923461 4.04595 2.4
      vertex -0.47896 5.78019 2.4
    endloop
  endfacet
  facet normal 0 0 1
    outer loop
      vertex -2.32983 5.31149 2.4
      vertex -2.58748 3.2446 2.4
      vertex -0.923461 4.04595 2.4
    endloop
  endfacet
  facet normal -0 0 1
    outer loop
      vertex -3.92823 4.2672 2.4
      vertex -2.58748 3.2446 2.4
      vertex -2.32983 5.31149 2.4
    endloop
  endfacet
  facet normal 0 0 1
    outer loop
      vertex -2.58748 3.2446 2.4
      vertex -3.92823 4.2672 2.4
      vertex -3.73902 1.80062 2.4
    endloop
  endfacet
  facet normal -0 0 1
    outer loop
      vertex -5.10095 2.76049 2.4
      vertex -3.73902 1.80062 2.4
      vertex -3.92823 4.2672 2.4
    endloop
  endfacet
  facet normal 0 0 1
    outer loop
      vertex -5.72089 0.954648 2.4
      vertex -3.73902 1.80062 2.4
      vertex -5.10095 2.76049 2.4
    endloop
  endfacet
  facet normal 0 0 1
    outer loop
      vertex 5.48574 -1.88326 2.4
      vertex 3.73902 -1.80062 2.4
      vertex 4.57701 -3.56243 2.4
    endloop
  endfacet
  facet normal -0 0 1
    outer loop
      vertex 2.58748 -3.2446 2.4
      vertex 4.57701 -3.56243 2.4
      vertex 3.73902 -1.80062 2.4
    endloop
  endfacet
  facet normal 0 0 1
    outer loop
      vertex 4.57701 -3.56243 2.4
      vertex 2.58748 -3.2446 2.4
      vertex 3.1723 -4.85557 2.4
    endloop
  endfacet
  facet normal -0 0 1
    outer loop
      vertex 0.923461 -4.04595 2.4
      vertex 3.1723 -4.85557 2.4
      vertex 2.58748 -3.2446 2.4
    endloop
  endfacet
  facet normal 0 0 1
    outer loop
      vertex 3.1723 -4.85557 2.4
      vertex 0.923461 -4.04595 2.4
      vertex 1.42382 -5.62252 2.4
    endloop
  endfacet
  facet normal 0 0 1
    outer loop
      vertex 0.923461 -4.04595 2.4
      vertex -0.47896 -5.78019 2.4
      vertex 1.42382 -5.62252 2.4
    endloop
  endfacet
  facet normal -0 0 1
    outer loop
      vertex -0.923461 -4.04595 2.4
      vertex -0.47896 -5.78019 2.4
      vertex 0.923461 -4.04595 2.4
    endloop
  endfacet
  facet normal 0 0 1
    outer loop
      vertex -0.923461 -4.04595 2.4
      vertex -2.32983 -5.31149 2.4
      vertex -0.47896 -5.78019 2.4
    endloop
  endfacet
  facet normal 0 0 1
    outer loop
      vertex -2.58748 -3.2446 2.4
      vertex -2.32983 -5.31149 2.4
      vertex -0.923461 -4.04595 2.4
    endloop
  endfacet
  facet normal 0 0 1
    outer loop
      vertex -3.92823 -4.2672 2.4
      vertex -2.58748 -3.2446 2.4
      vertex -3.73902 -1.80062 2.4
    endloop
  endfacet
  facet normal 0 0 1
    outer loop
      vertex -2.58748 -3.2446 2.4
      vertex -3.92823 -4.2672 2.4
      vertex -2.32983 -5.31149 2.4
    endloop
  endfacet
  facet normal -0 0 1
    outer loop
      vertex -5.72089 -0.954648 2.4
      vertex -3.73902 -1.80062 2.4
      vertex -4.15 0 2.4
    endloop
  endfacet
  facet normal 0 0 1
    outer loop
      vertex -3.73902 1.80062 2.4
      vertex -5.72089 0.954648 2.4
      vertex -4.15 0 2.4
    endloop
  endfacet
  facet normal 0 0 1
    outer loop
      vertex -3.73902 -1.80062 2.4
      vertex -5.10095 -2.76049 2.4
      vertex -3.92823 -4.2672 2.4
    endloop
  endfacet
  facet normal 0 0 1
    outer loop
      vertex -5.72089 -0.954648 2.4
      vertex -4.15 0 2.4
      vertex -5.72089 0.954648 2.4
    endloop
  endfacet
  facet normal 0 0 1
    outer loop
      vertex -3.73902 -1.80062 2.4
      vertex -5.72089 -0.954648 2.4
      vertex -5.10095 -2.76049 2.4
    endloop
  endfacet
  facet normal -0.546948 0.837166 0
    outer loop
      vertex -2.32983 5.31149 0
      vertex -3.92823 4.2672 2.4
      vertex -2.32983 5.31149 2.4
    endloop
  endfacet
  facet normal -0.546948 0.837166 0
    outer loop
      vertex -3.92823 4.2672 2.4
      vertex -2.32983 5.31149 0
      vertex -3.92823 4.2672 0
    endloop
  endfacet
  facet normal -0.245485 -0.9694 0
    outer loop
      vertex -2.32983 -5.31149 0
      vertex -0.47896 -5.78019 2.4
      vertex -2.32983 -5.31149 2.4
    endloop
  endfacet
  facet normal -0.245485 -0.9694 -0
    outer loop
      vertex -0.47896 -5.78019 2.4
      vertex -2.32983 -5.31149 0
      vertex -0.47896 -5.78019 0
    endloop
  endfacet
  facet normal -0.945817 -0.324699 0
    outer loop
      vertex -5.10095 -2.76049 0
      vertex -5.72089 -0.954648 2.4
      vertex -5.72089 -0.954648 0
    endloop
  endfacet
  facet normal -0.945817 -0.324699 0
    outer loop
      vertex -5.72089 -0.954648 2.4
      vertex -5.10095 -2.76049 0
      vertex -5.10095 -2.76049 2.4
    endloop
  endfacet
  facet normal 0.677281 0.735724 -0
    outer loop
      vertex 4.57701 3.56243 0
      vertex 3.1723 4.85557 2.4
      vertex 4.57701 3.56243 2.4
    endloop
  endfacet
  facet normal 0.677281 0.735724 0
    outer loop
      vertex 3.1723 4.85557 2.4
      vertex 4.57701 3.56243 0
      vertex 3.1723 4.85557 0
    endloop
  endfacet
  facet normal 0.879474 -0.475947 0
    outer loop
      vertex 4.57701 -3.56243 2.4
      vertex 5.48574 -1.88326 0
      vertex 5.48574 -1.88326 2.4
    endloop
  endfacet
  facet normal 0.879474 -0.475947 0
    outer loop
      vertex 5.48574 -1.88326 0
      vertex 4.57701 -3.56243 2.4
      vertex 4.57701 -3.56243 0
    endloop
  endfacet
  facet normal 0.401696 -0.915773 0
    outer loop
      vertex 1.42382 -5.62252 0
      vertex 3.1723 -4.85557 2.4
      vertex 1.42382 -5.62252 2.4
    endloop
  endfacet
  facet normal 0.401696 -0.915773 0
    outer loop
      vertex 3.1723 -4.85557 2.4
      vertex 1.42382 -5.62252 0
      vertex 3.1723 -4.85557 0
    endloop
  endfacet
  facet normal 0.0825791 -0.996585 0
    outer loop
      vertex -0.47896 -5.78019 0
      vertex 1.42382 -5.62252 2.4
      vertex -0.47896 -5.78019 2.4
    endloop
  endfacet
  facet normal 0.0825791 -0.996585 0
    outer loop
      vertex 1.42382 -5.62252 2.4
      vertex -0.47896 -5.78019 0
      vertex 1.42382 -5.62252 0
    endloop
  endfacet
  facet normal -0.78914 -0.614213 0
    outer loop
      vertex -3.92823 -4.2672 0
      vertex -5.10095 -2.76049 2.4
      vertex -5.10095 -2.76049 0
    endloop
  endfacet
  facet normal -0.78914 -0.614213 0
    outer loop
      vertex -5.10095 -2.76049 2.4
      vertex -3.92823 -4.2672 0
      vertex -3.92823 -4.2672 2.4
    endloop
  endfacet
  facet normal 0.986361 -0.164594 0
    outer loop
      vertex 5.48574 -1.88326 2.4
      vertex 5.8 0 0
      vertex 5.8 0 2.4
    endloop
  endfacet
  facet normal 0.986361 -0.164594 0
    outer loop
      vertex 5.8 0 0
      vertex 5.48574 -1.88326 2.4
      vertex 5.48574 -1.88326 0
    endloop
  endfacet
  facet normal 0.677281 -0.735724 0
    outer loop
      vertex 3.1723 -4.85557 0
      vertex 4.57701 -3.56243 2.4
      vertex 3.1723 -4.85557 2.4
    endloop
  endfacet
  facet normal 0.677281 -0.735724 0
    outer loop
      vertex 4.57701 -3.56243 2.4
      vertex 3.1723 -4.85557 0
      vertex 4.57701 -3.56243 0
    endloop
  endfacet
  facet normal -0.546948 -0.837166 0
    outer loop
      vertex -3.92823 -4.2672 0
      vertex -2.32983 -5.31149 2.4
      vertex -3.92823 -4.2672 2.4
    endloop
  endfacet
  facet normal -0.546948 -0.837166 -0
    outer loop
      vertex -2.32983 -5.31149 2.4
      vertex -3.92823 -4.2672 0
      vertex -2.32983 -5.31149 0
    endloop
  endfacet
  facet normal -0.974928 -0.222521 0
    outer loop
      vertex 4.15 0 0
      vertex 3.73902 1.80062 2.4
      vertex 3.73902 1.80062 0
    endloop
  endfacet
  facet normal -0.974928 -0.222521 0
    outer loop
      vertex 3.73902 1.80062 2.4
      vertex 4.15 0 0
      vertex 4.15 0 2.4
    endloop
  endfacet
  facet normal 0.974928 -0.222521 0
    outer loop
      vertex -4.15 0 2.4
      vertex -3.73902 1.80062 0
      vertex -3.73902 1.80062 2.4
    endloop
  endfacet
  facet normal 0.974928 -0.222521 0
    outer loop
      vertex -3.73902 1.80062 0
      vertex -4.15 0 2.4
      vertex -4.15 0 0
    endloop
  endfacet
  facet normal 0 -1 0
    outer loop
      vertex -0.923461 4.04595 0
      vertex 0.923461 4.04595 2.4
      vertex -0.923461 4.04595 2.4
    endloop
  endfacet
  facet normal 0 -1 -0
    outer loop
      vertex 0.923461 4.04595 2.4
      vertex -0.923461 4.04595 0
      vertex 0.923461 4.04595 0
    endloop
  endfacet
  facet normal -0.781832 -0.62349 0
    outer loop
      vertex 3.73902 1.80062 0
      vertex 2.58748 3.2446 2.4
      vertex 2.58748 3.2446 0
    endloop
  endfacet
  facet normal -0.781832 -0.62349 0
    outer loop
      vertex 2.58748 3.2446 2.4
      vertex 3.73902 1.80062 0
      vertex 3.73902 1.80062 2.4
    endloop
  endfacet
  facet normal 0.433883 -0.900969 0
    outer loop
      vertex -2.58748 3.2446 0
      vertex -0.923461 4.04595 2.4
      vertex -2.58748 3.2446 2.4
    endloop
  endfacet
  facet normal 0.433883 -0.900969 0
    outer loop
      vertex -0.923461 4.04595 2.4
      vertex -2.58748 3.2446 0
      vertex -0.923461 4.04595 0
    endloop
  endfacet
  facet normal 0 1 -0
    outer loop
      vertex 0.923461 -4.04595 0
      vertex -0.923461 -4.04595 2.4
      vertex 0.923461 -4.04595 2.4
    endloop
  endfacet
  facet normal 0 1 0
    outer loop
      vertex -0.923461 -4.04595 2.4
      vertex 0.923461 -4.04595 0
      vertex -0.923461 -4.04595 0
    endloop
  endfacet
  facet normal -0.433883 0.900969 0
    outer loop
      vertex 2.58748 -3.2446 0
      vertex 0.923461 -4.04595 2.4
      vertex 2.58748 -3.2446 2.4
    endloop
  endfacet
  facet normal -0.433883 0.900969 0
    outer loop
      vertex 0.923461 -4.04595 2.4
      vertex 2.58748 -3.2446 0
      vertex 0.923461 -4.04595 0
    endloop
  endfacet
  facet normal -0.433883 -0.900969 0
    outer loop
      vertex 0.923461 4.04595 0
      vertex 2.58748 3.2446 2.4
      vertex 0.923461 4.04595 2.4
    endloop
  endfacet
  facet normal -0.433883 -0.900969 -0
    outer loop
      vertex 2.58748 3.2446 2.4
      vertex 0.923461 4.04595 0
      vertex 2.58748 3.2446 0
    endloop
  endfacet
  facet normal 0.781832 -0.62349 0
    outer loop
      vertex -3.73902 1.80062 2.4
      vertex -2.58748 3.2446 0
      vertex -2.58748 3.2446 2.4
    endloop
  endfacet
  facet normal 0.781832 -0.62349 0
    outer loop
      vertex -2.58748 3.2446 0
      vertex -3.73902 1.80062 2.4
      vertex -3.73902 1.80062 0
    endloop
  endfacet
  facet normal 0.433883 0.900969 -0
    outer loop
      vertex -0.923461 -4.04595 0
      vertex -2.58748 -3.2446 2.4
      vertex -0.923461 -4.04595 2.4
    endloop
  endfacet
  facet normal 0.433883 0.900969 0
    outer loop
      vertex -2.58748 -3.2446 2.4
      vertex -0.923461 -4.04595 0
      vertex -2.58748 -3.2446 0
    endloop
  endfacet
  facet normal 0.974928 0.222521 0
    outer loop
      vertex -3.73902 -1.80062 2.4
      vertex -4.15 0 0
      vertex -4.15 0 2.4
    endloop
  endfacet
  facet normal 0.974928 0.222521 0
    outer loop
      vertex -4.15 0 0
      vertex -3.73902 -1.80062 2.4
      vertex -3.73902 -1.80062 0
    endloop
  endfacet
  facet normal -0.781832 0.62349 0
    outer loop
      vertex 2.58748 -3.2446 0
      vertex 3.73902 -1.80062 2.4
      vertex 3.73902 -1.80062 0
    endloop
  endfacet
  facet normal -0.781832 0.62349 0
    outer loop
      vertex 3.73902 -1.80062 2.4
      vertex 2.58748 -3.2446 0
      vertex 2.58748 -3.2446 2.4
    endloop
  endfacet
  facet normal -0.974928 0.222521 0
    outer loop
      vertex 3.73902 -1.80062 0
      vertex 4.15 0 2.4
      vertex 4.15 0 0
    endloop
  endfacet
  facet normal -0.974928 0.222521 0
    outer loop
      vertex 4.15 0 2.4
      vertex 3.73902 -1.80062 0
      vertex 3.73902 -1.80062 2.4
    endloop
  endfacet
  facet normal 0.781832 0.62349 0
    outer loop
      vertex -2.58748 -3.2446 2.4
      vertex -3.73902 -1.80062 0
      vertex -3.73902 -1.80062 2.4
    endloop
  endfacet
  facet normal 0.781832 0.62349 0
    outer loop
      vertex -3.73902 -1.80062 0
      vertex -2.58748 -3.2446 2.4
      vertex -2.58748 -3.2446 0
    endloop
  endfacet
endsolid OpenSCAD_Model
